<svg version="1" xmlns="http://www.w3.org/2000/svg" width="933.333" height="933.333" viewBox="0 0 700.000000 700.000000"><path d="M0 350v350h700V0H0v350zm502-4v261h-44.7l-5.3-12-5.3-12-4.6 3.4c-17.3 12.6-50.4 24.4-77.5 27.7-12.2 1.5-40.8.7-55.6-1.6-34-5.2-56-15.2-74.6-33.9-15.6-15.7-24-31.4-29.7-55.1-2-8.8-2.1-11.2-2.4-96.5-.4-95.4-.3-97.3 5.3-115.1 17-54 70.7-81.3 154.4-78.6 25.5.9 44.4 3.9 64.5 10.2 4.4 1.3 8.6 2.5 9.3 2.5.9 0 1.2-16.8 1.2-80.5V85h65v261z"/><path d="M341 283.6c-1.4.2-6.5.9-11.5 1.5-20.6 2.6-35.8 9.1-47.1 20.4-7.7 7.7-11.4 14.2-13.9 24.7-2.1 9-2.2 171.8-.1 181.8 3.9 18.3 14.9 31.9 33.9 41.8 14.5 7.6 32.1 10.8 53.2 9.7 29.4-1.5 53-7 72.5-16.9l8.5-4.3.3-122 .2-122-5.7-2.6c-18.4-8.1-37.9-11.7-66.8-12.2-11.5-.2-22.1-.2-23.5.1z"/></svg>